<svg width="30" height="34" viewBox="0 0 30 34" fill="none" xmlns="http://www.w3.org/2000/svg">
<path d="M25.8302 30.1148V32C25.8302 32.5523 25.3825 33 24.8302 33H2C1.44772 33 1 32.5523 1 32V5.14754C1 4.59526 1.44771 4.14754 2 4.14754H4.16981M25.8302 30.1148V5.14754C25.8302 4.59526 25.3825 4.14754 24.8302 4.14754H4.16981M25.8302 30.1148H28C28.5523 30.1148 29 29.667 29 29.1148V2C29 1.44772 28.5523 1 28 1H5.16981C4.61753 1 4.16981 1.44772 4.16981 2V4.14754" stroke="#C9C9C9" stroke-width="2"/>
</svg>
